<?xml version="1.0" encoding="utf-8"?>
<!-- Generator: Adobe Illustrator 25.4.1, SVG Export Plug-In . SVG Version: 6.00 Build 0)  -->
<svg version="1.1" id="Layer_1" xmlns="http://www.w3.org/2000/svg" xmlns:xlink="http://www.w3.org/1999/xlink" x="0px" y="0px"
	 viewBox="0 0 108.9014053 153.3829651" style="enable-background:new 0 0 108.9014053 153.3829651;" xml:space="preserve">
<style type="text/css">
	.st0{fill:#FFFFFF;}
</style>
<path class="st0" d="M10.484251,133.3095245c0,0-19.2256775-20.8278122-5.6074891-48.8652573
	S42.5270462,35.5790024,29.3093929,13.149045c0,0-3.6048145-6.4085593-6.8090935-8.0106983
	s-8.0106993-7.6101637,8.0106983-4.0053496s29.2390518,12.8171177,34.0454674,40.0534935
	s7.2096329,22.4299583,11.6155167,22.4299583s7.6101608-5.206955,4.8064194-11.6155128
	c-2.8037491-6.4085579-11.2149811-18.8251419,3.204277-7.2096291s28.8385162,30.8411865,23.6315613,59.2791672
	s-20.4272766,37.6502914-26.4353027,40.8545609c-6.0080261,3.2042847-15.2203293,5.6074982-6.0080261-5.206955
	c9.2123032-10.8144379,14.0187225-15.6208572,12.8171158-29.6395798
	c-1.2015991-14.0187225-15.2203217-25.6342316-11.615509-16.0213928s-0.4005356,13.618187-6.0080261,13.618187
	s-12.0160484-3.2042847-10.4139061-15.6208649c1.6021385-12.4165802,1.0168228-16.822464-5.6998825-20.8278198
	c-6.7167015-4.0053482-11.9236565-6.4359131-6.7167015,2.589798s0.8010674,19.039093-12.0160484,27.450325
	s-10.0133743,27.6369095-10.0133743,27.6369095s3.2042789,15.8294678,12.416584,18.7291718
	c9.2123032,2.8997192,6.8090935,7.706131-0.4005356,4.9023895S20.4976234,146.1266479,10.484251,133.3095245z"/>
</svg>
